<svg xmlns="http://www.w3.org/2000/svg" viewBox="0 0 816 187"><defs><style>.cls-1{fill:#ff3347;}.cls-2{fill:#fff;}.cls-3{fill:#191919;}</style></defs><title>sexkomix_logo_6_18</title><g id="ico"><rect class="cls-1" x="632" width="184" height="187"/><path class="cls-2" d="M884,1084v76.65H869.05v-58.88h-7.2V1091.2l1-.11a11.08,11.08,0,0,0,4.91-1.52,15.6,15.6,0,0,0,3.82-3.82l1.31-1.74Z" transform="translate(-184.5 -1028.5)"/><path class="cls-2" d="M903.5,1083.68h8.29q14.18,0,14.18,14.18v11.77q0,8.73-6.33,11.34a8.55,8.55,0,0,1,5,3.27,11.77,11.77,0,0,1,1.53,6.55v16.35q0,14.17-14.18,14.18h-8.72q-14.17,0-14.18-14.18v-16.35a11.77,11.77,0,0,1,1.53-6.55,8.53,8.53,0,0,1,5-3.27q-6.31-2.61-6.32-11.34v-11.77Q889.33,1083.69,903.5,1083.68Zm.55,47v15a2.41,2.41,0,0,0,2.73,2.72h1.74a2.41,2.41,0,0,0,2.73-2.72v-15a2.41,2.41,0,0,0-2.73-2.73h-1.74A2.41,2.41,0,0,0,904.05,1130.68Zm2.83-15.38h1.53a2.41,2.41,0,0,0,2.73-2.72v-13.31a2.41,2.41,0,0,0-2.73-2.72h-1.53a2.41,2.41,0,0,0-2.72,2.72v13.31A2.41,2.41,0,0,0,906.88,1115.3Z" transform="translate(-184.5 -1028.5)"/><path class="cls-2" d="M940.36,1137.87v-11.12h-10.9v-9.7h10.9v-11.13h10.25v11.13h10.91v9.7H950.61v11.12Z" transform="translate(-184.5 -1028.5)"/></g><g id="logo_6"><rect class="cls-3" width="632" height="187"/><rect class="cls-1" x="30" y="32" width="166" height="123"/><path class="cls-2" d="M251.2,1109l15.6,11.57a17.71,17.71,0,0,1,5.72,6.11,18.39,18.39,0,0,1,1.56,8.19v16.77q0,16.9-16.9,16.9H247q-16.9,0-16.9-16.9v-19.37H248V1150q0,3.26,3.25,3.25h1.69c2.16,0,3.25-1.08,3.25-3.25v-10.92a6.83,6.83,0,0,0-3.12-5.85l-15.6-11.57a17.61,17.61,0,0,1-5.72-6.11,18.39,18.39,0,0,1-1.56-8.19v-14.43q0-16.9,16.9-16.9h9.88q16.89,0,16.9,16.9v16.64H256v-15c0-2.17-1.09-3.25-3.25-3.25h-1.43q-3.26,0-3.25,3.25v8.58A6.83,6.83,0,0,0,251.2,1109Z" transform="translate(-184.5 -1028.5)"/><path class="cls-2" d="M279.54,1076.8h33.8v16.25h-15.6v20.41h14.95v16.25H297.74v21.84H313.6v16.25H279.54Z" transform="translate(-184.5 -1028.5)"/><path class="cls-2" d="M364.55,1076.8l-11.18,43.94,11.44,47.06h-19l-5.46-28.08-6.11,28.08H317l11.31-43.94-11-47.06h19l5.07,27.82,6-27.82Z" transform="translate(-184.5 -1028.5)"/><rect class="cls-2" x="211" y="32" width="391" height="4"/><rect class="cls-2" x="211" y="151" width="391" height="4"/><path class="cls-2" d="M434.64,1167.8H423.2l-17-44.72v44.72h-10.4v-91h10.4v44.07l17.94-44.07h11.05l-18.72,44.72Z" transform="translate(-184.5 -1028.5)"/><path class="cls-2" d="M474.16,1092.92v58.76q0,16.9-16.9,16.9h-3.9q-16.89,0-16.9-16.9v-58.76q0-16.9,16.9-16.9h3.9Q474.17,1076,474.16,1092.92Zm-10.4,59.28v-59.8q0-6.89-6.89-6.89h-3.12q-6.88,0-6.89,6.89v59.8q0,6.88,6.89,6.89h3.12Q463.77,1159.09,463.76,1152.2Z" transform="translate(-184.5 -1028.5)"/><path class="cls-2" d="M519.27,1076.8h16.12v91H525.25v-75.27l-12.48,75.27H502.11l-12.48-75.27v75.27h-9.88v-91h16.38l11.57,71.76Z" transform="translate(-184.5 -1028.5)"/><path class="cls-2" d="M551.77,1076.8v91h-10.4v-91Z" transform="translate(-184.5 -1028.5)"/><path class="cls-2" d="M595.06,1076.8l-13.52,45.5,13.78,45.5h-10.4l-9.75-35.36-9.75,35.36H555.28l13.78-45.37-13.52-45.63h10.4l9.49,35.49,9.49-35.49Z" transform="translate(-184.5 -1028.5)"/><path class="cls-2" d="M604.68,1134.52l14.69-18.46q4-5.2,4-9.88V1092.4q0-6.89-6.63-6.89h-2.08q-6.63,0-6.63,6.89v17.16H597.92v-16.64q0-16.9,16.64-16.9h2.6q16.64,0,16.64,16.9v11.7a27.1,27.1,0,0,1-1.37,9,29.22,29.22,0,0,1-5.39,8.71l-14.69,18.46a18.81,18.81,0,0,0-3.45,5.59,20.67,20.67,0,0,0-.84,6.5v5.33H633.8v9.62H597.66v-15.6a24,24,0,0,1,1.49-8.84A37,37,0,0,1,604.68,1134.52Z" transform="translate(-184.5 -1028.5)"/><path class="cls-2" d="M647.71,1152.72v15.08H637.57v-15.08Z" transform="translate(-184.5 -1028.5)"/><path class="cls-2" d="M675.92,1123.86v-11.57q0-6.24-6.24-6.24h-1.82q-6.24,0-6.24,6.24v40.82q0,6.24,6.24,6.24h1.95q6.24,0,6.24-6.24V1139.2h9.75v13.52q0,15.85-15.86,15.86H667.6q-15.87,0-15.86-15.86v-40q0-15.86,15.86-15.86h2.47q15.6,0,15.6,15.6v11.44Z" transform="translate(-184.5 -1028.5)"/><path class="cls-2" d="M708.68,1168.58h-2.86q-15.87,0-15.86-15.86v-40q0-15.86,15.86-15.86h2.86q15.86,0,15.86,15.86v40Q724.54,1168.57,708.68,1168.58Zm-.26-62.53h-2.34q-6.24,0-6.24,6.24v40.82q0,6.24,6.24,6.24h2.34q6.24,0,6.24-6.24v-40.82Q714.66,1106.05,708.42,1106.05Z" transform="translate(-184.5 -1028.5)"/><path class="cls-2" d="M762.75,1109.69v58.11h-9.87v-56.55c0-3.38-1.57-5.07-4.69-5.07h-.13q-4,0-9,3.51v58.11h-9.89v-70.2h9.89v4.55c3.9-3.55,7.92-5.33,12.09-5.33h.12q7.55,0,10.15,5.72,6.36-5.71,13.39-5.72H775q5.58,0,8.58,3.25t2.86,9.1v58.63h-9.88v-56.55q0-5.07-4.69-5.07h-.12Q767.7,1106.18,762.75,1109.69Z" transform="translate(-184.5 -1028.5)"/></g></svg>